<?xml version="1.0" encoding="UTF-8"?>
<svg width="291.84mm" height="282.88mm" version="1.1" viewBox="0 0 291.84 282.88" xmlns="http://www.w3.org/2000/svg">
<defs>
<linearGradient id="a" x1="126.3" x2="482" y1="200.58" y2="200.58" gradientUnits="userSpaceOnUse">
<stop stop-color="#fff" stop-opacity=".2" offset="0"/>
<stop stop-color="#fff" stop-opacity=".702" offset="1"/>
</linearGradient>
</defs>
<g transform="translate(-15.436 4.9742)">
<g transform="matrix(.33636 0 0 .33636 41.76 17.898)" fill="none">
<path d="m75.956 2.5666c-55.668 89.346-5.0096 179.56-24.599 317.18-19.59 137.62-97.565 202.93-12.258 312.04 85.308 109.11 342.39 187.57 517.36 110.02 195.78-54.751 251.04-265.8 228.04-353.8s-117.06-71.73-228.04-164.65c-110.98-92.919-120.4-227.29-219.65-260.99-126.57-42.984-205.19-49.137-260.86 40.209z" fill="#e1ebfd" fill-opacity=".34"/>
</g>
</g>
<g transform="translate(-15.436 4.9742)">
<g transform="matrix(.35513 0 0 .36652 75.67 49.643)" fill="none">
<path d="m64.135 56.823c-40.941 64.05-17.553 108.92-31.959 207.58-14.406 98.654-62.738 160.66 1e-4 238.88 62.738 78.216 195.83 125.14 310.99 93.779 115.17-31.359 198.65-110.67 221.97-214.92s-47.062-135.45-128.68-202.06c-81.615-66.615-123.97-133-187.83-161.82-63.861-28.825-143.56-25.484-184.5 38.565z" fill="#46a3fd" opacity=".05"/>
</g>
</g>
<g transform="translate(-15.436 4.9742)">
<g transform="matrix(.49498 0 0 .49498 .95452 15.341)" fill="none">
<path d="m333.31 366.58h-200.78c-1.038 0-2.06-0.259-2.972-0.755-0.912-0.495-1.685-1.211-2.25-2.081-0.565-0.871-0.904-1.869-0.984-2.903-0.081-1.035 0.098-2.074 0.521-3.021l142.46-319.55c0.489-1.0996 1.286-2.0338 2.295-2.6895s2.186-1.0047 3.39-1.0048h200.79c1.038-1e-4 2.059 0.2593 2.971 0.7546s1.686 1.2107 2.251 2.0813c0.565 0.8705 0.903 1.8685 0.984 2.9032 0.081 1.0346-0.098 2.0731-0.52 3.021l-142.46 319.55c-0.49 1.1-1.288 2.035-2.298 2.69-1.01 0.656-2.188 1.005-3.392 1.005z" fill="url(#a)"/>
<path d="m390.73 219.84 64.796-145.34c0.363-0.8117 0.517-1.7013 0.448-2.5876-0.069-0.8864-0.359-1.7414-0.843-2.4872-0.484-0.7459-1.146-1.3588-1.928-1.7831-0.781-0.4243-1.656-0.6464-2.545-0.6461h-181.81c-3.302-5e-4 -6.534 0.9561-9.305 2.7542-2.77 1.7982-4.96 4.3606-6.304 7.3774l-65.781 147.54c-0.362 0.812-0.516 1.702-0.447 2.588s0.359 1.741 0.843 2.487c0.483 0.746 1.146 1.359 1.928 1.783 0.781 0.425 1.656 0.647 2.545 0.646h179.39c4.022 1e-3 7.958-1.163 11.331-3.352 3.374-2.189 6.041-5.309 7.68-8.982z" fill="#fff"/>
<path d="m370.65 240.78 64.796-145.34c0.363-0.8117 0.517-1.7013 0.448-2.5876-0.069-0.8864-0.359-1.7414-0.843-2.4872-0.484-0.7459-1.146-1.3588-1.928-1.7831-0.781-0.4243-1.656-0.6464-2.545-0.6461h-181.81c-3.302-3e-4 -6.534 0.9564-9.304 2.7545-2.77 1.7982-4.96 4.3605-6.304 7.3771l-65.781 147.54c-0.362 0.812-0.516 1.701-0.447 2.588 0.069 0.886 0.359 1.741 0.843 2.487s1.146 1.359 1.928 1.783c0.781 0.424 1.656 0.647 2.545 0.646h179.39c4.022 1e-3 7.957-1.164 11.331-3.353s6.041-5.308 7.68-8.981z" stroke="#000" stroke-miterlimit="10" stroke-width=".3"/>
<path d="m300.51 147.64c17.087-14.811 21.916-37.227 10.786-50.066-11.13-12.84-34.004-11.241-51.091 3.5703-17.087 14.812-21.916 37.228-10.786 50.067 11.13 12.84 34.004 11.241 51.091-3.571z" fill="#e6f4ff"/>
<path d="m298.14 144.9c15.076-13.069 19.337-32.847 9.516-44.176-9.82-11.33-30.003-9.9192-45.079 3.15-15.077 13.068-19.337 32.847-9.517 44.176 9.821 11.329 30.003 9.919 45.08-3.15z" fill="#94c3ff"/>
<path d="m280.93 130.66s-16.455 2.72-23.481 5.49c-4.771 2.873-5.528 5.157-6.669 8.585l-0.017 0.034c3.826 6.688 11.107 10.938 20.613 10.938 12.28 0 24.914-7.086 32.995-17.378-4.398-6.461-23.441-7.669-23.441-7.669z" fill="#1688f3"/>
<path d="m275.14 123.66-2.838 11.988c-0.108 0.315-0.145 0.65-0.109 0.981s0.144 0.65 0.316 0.935c0.173 0.285 0.406 0.528 0.683 0.713s0.591 0.306 0.921 0.356c3.326 0.523 6.727-0.218 9.534-2.078 0.546-0.337 1.008-0.794 1.352-1.335 0.344-0.542 0.56-1.154 0.634-1.791 0.398-5.595 1.534-17.064 1.534-17.064z" fill="#fff"/>
<path d="m272.58 110.95s-7.728 15.648-6.224 19.857c1.739 2.869 17.278-3.579 19.824-7.769 2.545-4.191 8.39-11.794 3.837-16.546s-11.59-3.14-17.437 4.458z" fill="#fff"/>
<path d="m272.58 110.95s-1.361-5.528 3.316-8.785c4.678-3.2569 10.683-2.6058 12.843 0.651 0.858 1.199 1.641 2.45 2.344 3.745 0.717 0.191 1.374 0.559 1.911 1.072 0.536 0.512 0.934 1.152 1.157 1.859 0.765 2.443-4.103 8.631-6.083 10.422-1.98 1.79-1.57 1.838-1.57 1.838l-0.663-0.862c0.199-2.534 0.645-5.043 1.332-7.49 0.259-1.465-1.415-3.579-4.368-4.071-2.953-0.491-4.04 2.263-10.219 1.621z" fill="#0c0a37"/>
<path d="m287.65 118.07c0.273-0.532 0.713-0.961 1.253-1.219 0.539-0.259 1.149-0.333 1.735-0.213 1.9 0.635-1.895 6.616-3.907 6.2-1.925-0.493 0.919-4.768 0.919-4.768z" fill="#fff"/>
<path d="m285.77 131.15s-4.13 4.559-8.196 5.862c-0.714 0.217-1.771 1.629-1.771 1.629l-0.741-1.954s-2.791-1.628-1.98-4.451l-0.56 0.435-1.492 3.694c-0.517 1.55-0.865 3.151-1.039 4.776l3.739-2.063c1.327 0.426 2.747 0.464 4.094 0.108 0 0 0.774 2.606 1.471 2.823s6.35-5.103 7.203-6.948c0.58-1.14 0.834-2.418 0.733-3.694z" fill="#fff"/>
<path d="m405.02 138.04h-78.759c-2.417 0-3.661-1.962-2.781-4.376l11.147-30.628c0.479-1.219 1.294-2.278 2.35-3.052 1.056-0.7743 2.311-1.2329 3.618-1.3226h78.758c2.417 0 3.664 1.9626 2.784 4.3746l-11.148 30.628c-0.479 1.219-1.294 2.278-2.351 3.052-1.057 0.775-2.311 1.234-3.618 1.324z" fill="#a1c2ff" opacity=".39"/>
<path d="m409.57 112.52h-67.819l1.195-3.282h67.824z" fill="#94c3ff"/>
<path d="m379.8 120.17h-40.837l1.195-3.281h40.838z" fill="#94c3ff"/>
<path d="m347.02 127.1h-10.574l1.195-3.282h10.574z" fill="#94c3ff"/>
<path d="m329.91 152.13c-0.593 1.375-1.55 2.561-2.769 3.43-1.219 0.868-2.653 1.387-4.145 1.499-2.724 0-4.041-2.205-2.938-4.929 0.594-1.374 1.553-2.559 2.773-3.428 1.219-0.868 2.653-1.386 4.146-1.498 2.715 0 4.034 2.205 2.933 4.926z" fill="#94c3ff"/>
<path d="m347.03 152.13c-0.593 1.375-1.552 2.562-2.771 3.43-1.22 0.869-2.654 1.387-4.147 1.499-2.723 0-4.041-2.205-2.938-4.929 0.594-1.374 1.553-2.559 2.773-3.428 1.22-0.868 2.654-1.386 4.147-1.498 2.721 0 4.037 2.205 2.936 4.926z" fill="#94c3ff"/>
<path d="m364.15 152.13c-0.593 1.375-1.551 2.562-2.771 3.43-1.219 0.869-2.654 1.387-4.147 1.499-2.723 0-4.04-2.205-2.938-4.929 0.594-1.374 1.553-2.559 2.773-3.428 1.22-0.868 2.654-1.386 4.147-1.498 2.721 0 4.037 2.205 2.936 4.926z" fill="#94c3ff"/>
<path d="m381.27 152.13c-0.593 1.375-1.551 2.562-2.771 3.43-1.219 0.869-2.653 1.387-4.147 1.499-2.723 0-4.04-2.205-2.938-4.929 0.595-1.374 1.554-2.559 2.773-3.428 1.22-0.868 2.654-1.386 4.147-1.498 2.721 0 4.037 2.205 2.936 4.926z" fill="#72d34d"/>
<path d="m398.38 152.13c-0.593 1.376-1.552 2.562-2.772 3.431s-2.655 1.387-4.148 1.498c-2.721 0-4.041-2.205-2.937-4.929 0.594-1.374 1.553-2.559 2.773-3.428 1.22-0.868 2.654-1.386 4.147-1.498 2.722 0 4.038 2.205 2.937 4.926z" fill="#a1c2ff" opacity=".39"/>
<path d="m357.71 167.11-21.731 22.585-22.519 8.932 25.521 18.733 25.648-21.885z" fill="#a1c2ff" opacity=".39"/>
<path d="m352.56 180.22-16.582 9.467-14.024 8.864 19.021 13.659 17.983-16.427z" fill="#a1c2ff" opacity=".7"/>
<path d="m357.71 167.11-21.731 22.585-22.519 8.932 25.45 18.908 25.719-22.06z" stroke="#1688f3" stroke-miterlimit="10" stroke-width=".281"/>
<path d="m347.5 197.57c-0.19 0.439-0.497 0.819-0.887 1.096-0.389 0.278-0.848 0.444-1.325 0.48-0.871 0-1.292-0.706-0.94-1.576 0.19-0.439 0.496-0.819 0.886-1.096 0.39-0.278 0.849-0.444 1.326-0.48 0.872-2e-3 1.292 0.703 0.94 1.576z" fill="#1688f3"/>
<path d="m326.14 181.99 19.232 15.232-34.322 1.751" stroke="#1688f3" stroke-miterlimit="10" stroke-width=".281"/>
<path d="m337.49 222.78 8.577-25.561 22.627-2.276" stroke="#1688f3" stroke-miterlimit="10" stroke-width=".281"/>
<path d="m358.98 163.95-12.915 33.265" stroke="#1688f3" stroke-miterlimit="10" stroke-width=".281"/>
<path d="m327.89 181.7c-0.319 0.737-0.834 1.374-1.488 1.84-0.655 0.466-1.425 0.744-2.226 0.805-1.46 0-2.166-1.185-1.576-2.645 0.319-0.738 0.833-1.375 1.488-1.841s1.425-0.744 2.226-0.804c1.459 0 2.165 1.184 1.576 2.645z" fill="#94c3ff"/>
<path d="m312.32 198.99c-0.318 0.738-0.833 1.375-1.488 1.841-0.655 0.467-1.425 0.745-2.227 0.804-1.461 0-2.167-1.183-1.578-2.645 0.319-0.737 0.834-1.373 1.489-1.839 0.654-0.466 1.424-0.744 2.225-0.803 1.465 0 2.17 1.183 1.579 2.642z" fill="#72d34d"/>
<path d="m339.99 223.19c-0.319 0.738-0.834 1.374-1.488 1.84-0.655 0.466-1.424 0.745-2.226 0.805-1.46 0-2.165-1.184-1.575-2.645 0.318-0.738 0.833-1.374 1.488-1.84 0.654-0.467 1.424-0.745 2.225-0.805 1.461 0 2.165 1.185 1.576 2.645z" fill="#94c3ff"/>
<path d="m371.78 194.98c-0.319 0.737-0.833 1.373-1.488 1.839-0.654 0.467-1.423 0.745-2.224 0.806-1.461 0-2.166-1.185-1.576-2.645 0.318-0.738 0.833-1.375 1.487-1.841 0.655-0.467 1.425-0.745 2.227-0.804 1.458 0 2.163 1.182 1.574 2.645z" fill="#94c3ff"/>
<path d="m361.92 163.07c-0.319 0.738-0.834 1.374-1.488 1.84-0.655 0.466-1.424 0.745-2.226 0.805-1.46 0-2.166-1.185-1.576-2.645 0.319-0.738 0.833-1.375 1.488-1.841s1.425-0.744 2.226-0.804c1.459 0 2.165 1.183 1.576 2.645z" fill="#72d34d"/>
<path d="m301.88 185.14h-65.93l5.04-12.469h65.929z" fill="#1688f3"/>
<path d="m262.17 213.2h-37.568l2.16-5.345h37.568z" fill="#a1c2ff" opacity=".39"/>
<path d="m256.54 202.51h-27.619l5.039-12.468h27.62z" fill="#a1c2ff" opacity=".39"/>
<path d="m406.43 337.5 32.263-72.362c0.18-0.404 0.256-0.847 0.221-1.287-0.035-0.441-0.179-0.866-0.42-1.237s-0.571-0.676-0.959-0.887c-0.389-0.211-0.824-0.322-1.266-0.322h-90.522c-1.643 1e-3 -3.251 0.477-4.63 1.372-1.378 0.896-2.468 2.171-3.137 3.671l-32.751 73.461c-0.18 0.405-0.256 0.847-0.221 1.288s0.18 0.866 0.42 1.237c0.241 0.371 0.571 0.676 0.959 0.887 0.389 0.211 0.824 0.322 1.266 0.322h89.318c2.001-1e-3 3.96-0.582 5.639-1.672 1.678-1.09 3.005-2.643 3.82-4.471z" fill="#fff"/>
<path d="m388.08 319.59c15.24-12.464 20.831-30.839 12.487-41.042-8.344-10.202-27.463-8.369-42.704 4.096-15.24 12.464-20.831 30.839-12.487 41.042 8.344 10.202 27.463 8.369 42.704-4.096z" fill="#a1c2ff" opacity=".39"/>
<path d="m375.39 304.14s14.678 7.294 16.232 13.978c1.554 6.685-4.964 24.31-4.964 24.31h-58.338s9.563-20.665 16.998-25.524c7.434-4.859 21.784-8.574 21.784-8.574z" fill="#4385ff"/>
<path d="m369.37 299.4-4.578 9.892c-0.577 1.237-0.231 2.367 0.834 2.69 2.648 0.734 5.477 0.408 7.888-0.908 1.021-0.503 1.801-1.39 2.171-2.467 1.411-4.7 4.552-14.305 4.552-14.305z" fill="#94c3ff"/>
<path d="m369.86 288.42s-9.131 12.551-8.774 16.244c0.802 2.583 14.257-1.476 17.076-4.799 2.819-3.322 8.896-9.229 6.257-13.659-2.639-4.431-8.482-3.692-14.559 2.214z" fill="#94c3ff"/>
<path d="m370.25 286.57c-0.117 0.159-0.226 0.324-0.326 0.494-0.53 0.893-1.316 2.694 0.878 2.812l2.928 0.157s4.699-2.675 6.545 0.157c1.372 2.832-3.103 4.563-2.731 5.98 0.372 1.416 0.183 1.1-0.449 1.886-0.744 1.315-1.881 2.363-3.251 2.997-2.114 0.943-3.779 0.786-5.799 1.889-2.02 1.102-5.917-0.159-6.321-1.103-0.941-0.786-1.482 0.944-2.085 2.046-0.602 1.103-2.461 1.417-0.674 2.832s3.109 2.046 6.234 0.157c1.905-1.31 4.082-2.171 6.368-2.518 2.708-0.525 5.108-2.079 6.696-4.335 1.2-1.963 1.587-4.477 2.6-5.426 1.012-0.949 1.572 0 1.129 1.1s3.842-0.943 4.863-4.248c1.02-3.305-0.775-3.146-0.955-5.035-0.18-1.888 1.962-4.091-0.323-5.821-2.286-1.729-4.44 0.473-5.252-0.63-0.812-1.102-4.371-1.257-7.212 1.103-1.702 1.44-2.778 3.484-3.002 5.703" fill="#1688f3"/>
<path d="m380.31 294.85s1.233-1.593 2.624-0.943c1.366 0.708-2.784 5.426-4.281 4.898-1.413-0.592 1.657-3.955 1.657-3.955z" fill="#94c3ff"/>
<path d="m360.74 302.31s1.341-4.878 4.743-5.507 4.934 1.415 4.708 3.146c-0.049 0.52 0.044 1.043 0.269 1.514 0.225 0.472 0.574 0.873 1.009 1.162 0 0-8.576 4.091-10.729-0.315z" fill="#1688f3"/>
<path d="m365.85 435.19 32.261-72.362c0.179-0.404 0.255-0.847 0.22-1.288s-0.179-0.866-0.42-1.237-0.57-0.675-0.959-0.887c-0.388-0.211-0.823-0.322-1.266-0.322h-90.519c-1.644 0-3.254 0.476-4.633 1.372-1.379 0.895-2.47 2.17-3.14 3.672l-32.751 73.461c-0.18 0.404-0.256 0.847-0.221 1.287 0.035 0.441 0.18 0.866 0.42 1.237 0.241 0.371 0.571 0.676 0.959 0.887 0.389 0.211 0.824 0.322 1.266 0.322h89.318c2.002 0 3.962-0.58 5.642-1.67s3.008-2.644 3.823-4.472z" fill="#fff"/>
<path d="m267.49 294.41h-99.704c-3.058 0-4.537-2.482-3.3-5.541l7.086-17.54c0.668-1.545 1.745-2.879 3.116-3.855 1.37-0.977 2.982-1.56 4.661-1.686h99.703c3.058 0 4.537 2.479 3.3 5.541l-7.087 17.54c-0.667 1.545-1.744 2.878-3.115 3.855-1.37 0.977-2.982 1.56-4.66 1.686z" fill="#4385ff"/>
<path d="m266.71 281.48h-85.856l1.678-4.156h85.856z" fill="#fff"/>
<path d="m186.85 5.5322h-3.374c-0.596 0-0.885-0.48256-0.644-1.0794l1.363-3.3734c0.13-0.30128 0.341-0.56111 0.608-0.75138 0.268-0.19026 0.582-0.30371 0.91-0.32804h3.371c0.597 0 0.885 0.48256 0.644 1.0794l-1.362 3.3734c-0.13 0.30133-0.34 0.5613-0.607 0.75161-0.268 0.19032-0.582 0.3037-0.909 0.32781z" fill="#f9fbfc"/>
<path d="m221.44 5.5322h-3.374c-0.596 0-0.885-0.48256-0.644-1.0794l1.363-3.3734c0.13-0.30103 0.34-0.56072 0.607-0.75097s0.581-0.30383 0.908-0.32845h3.374c0.597 0 0.885 0.48256 0.644 1.0794l-1.362 3.3734c-0.131 0.30103-0.341 0.56072-0.608 0.75098-0.267 0.19025-0.581 0.30383-0.908 0.32844z" fill="#bfd9ff"/>
<path d="m180.42 21.442h-3.373c-0.597 0-0.886-0.4849-0.645-1.0817l1.363-3.3711c0.13-0.3016 0.34-0.5619 0.608-0.7525 0.268-0.1907 0.582-0.3046 0.91-0.3292h3.371c0.597 0 0.885 0.4848 0.644 1.0817l-1.361 3.3711c-0.13 0.3014-0.34 0.5616-0.608 0.7522-0.267 0.1907-0.582 0.3046-0.909 0.3295z" fill="#bfd9ff"/>
<path d="m197.72 21.442h-3.371c-0.597 0-0.886-0.4849-0.645-1.0817l1.362-3.3711c0.13-0.3016 0.34-0.5619 0.608-0.7525 0.267-0.1907 0.582-0.3046 0.91-0.3292h3.373c0.597 0 0.886 0.4848 0.644 1.0817l-1.362 3.3711c-0.13 0.3018-0.341 0.5621-0.609 0.7528s-0.582 0.3044-0.91 0.3289z" fill="#f394ca"/>
<path d="m215.01 21.442h-3.373c-0.597 0-0.886-0.4849-0.645-1.0817l1.363-3.3711c0.13-0.3016 0.34-0.5619 0.608-0.7525 0.268-0.1907 0.582-0.3046 0.91-0.3292h3.371c0.597 0 0.885 0.4848 0.644 1.0817l-1.362 3.3711c-0.13 0.3013-0.34 0.5613-0.607 0.7519-0.268 0.1907-0.582 0.3047-0.909 0.3298z" fill="#f9fbfc"/>
<path d="m228.84 21.442h-3.371c-0.597 0-0.886-0.4849-0.645-1.0817l1.363-3.3711c0.129-0.3016 0.339-0.5619 0.607-0.7526 0.267-0.1907 0.581-0.3046 0.909-0.3291h3.373c0.597 0 0.885 0.4848 0.644 1.0817l-1.362 3.3711c-0.13 0.3016-0.341 0.5618-0.608 0.7525-0.268 0.1907-0.583 0.3045-0.91 0.3292z" fill="#f9fbfc"/>
<path d="m174 37.349h-3.373c-0.596 0-0.886-0.4848-0.644-1.0794l1.362-3.3733c0.13-0.3013 0.341-0.5612 0.608-0.7514 0.268-0.1903 0.583-0.3037 0.91-0.3281h3.371c0.597 0 0.886 0.4826 0.644 1.0795l-1.361 3.3733c-0.131 0.3009-0.341 0.5604-0.608 0.7507-0.268 0.1902-0.582 0.3038-0.909 0.3287z" fill="#f9fbfc"/>
<path d="m160.16 37.349h-3.371c-0.597 0-0.886-0.4848-0.644-1.0794l1.361-3.3733c0.13-0.3013 0.341-0.5612 0.608-0.7514 0.268-0.1903 0.583-0.3037 0.91-0.3281h3.373c0.597 0 0.886 0.4826 0.645 1.0795l-1.363 3.3733c-0.131 0.3012-0.341 0.561-0.609 0.7512s-0.583 0.3037-0.91 0.3282z" fill="#f9fbfc"/>
<path d="m191.29 37.349h-3.371c-0.597 0-0.886-0.4848-0.644-1.0794l1.362-3.3733c0.13-0.3014 0.34-0.5613 0.607-0.7516 0.267-0.1904 0.582-0.3037 0.909-0.3279h3.373c0.597 0 0.886 0.4826 0.644 1.0795l-1.362 3.3733c-0.131 0.3012-0.341 0.5609-0.609 0.7511-0.267 0.1902-0.582 0.3038-0.909 0.3283z" fill="#f9fbfc"/>
<path d="m208.58 37.349h-3.373c-0.597 0-0.886-0.4848-0.644-1.0794l1.362-3.3733c0.131-0.3013 0.341-0.5612 0.609-0.7514 0.267-0.1903 0.582-0.3037 0.909-0.3281h3.371c0.597 0 0.886 0.4826 0.644 1.0795l-1.362 3.3733c-0.13 0.301-0.34 0.5606-0.607 0.7508-0.268 0.1903-0.582 0.3039-0.909 0.3286z" fill="#72d34d"/>
<path d="m167.57 53.257h-3.371c-0.597 0-0.886-0.4826-0.646-1.0795l1.363-3.3733c0.13-0.3014 0.34-0.5613 0.608-0.7516 0.268-0.1902 0.582-0.3036 0.91-0.3278h3.371c0.597 0 0.885 0.4825 0.645 1.0794l-1.362 3.3733c-0.131 0.3014-0.341 0.5613-0.609 0.7516-0.267 0.1903-0.582 0.3037-0.909 0.3279z" fill="#f9fbfc"/>
<path d="m188.23 317.82h-4.754c-0.841 0-1.247-0.681-0.908-1.524l1.92-4.752c0.184-0.425 0.48-0.791 0.857-1.06 0.377-0.268 0.821-0.429 1.282-0.464h4.752c0.843 0 1.248 0.684 0.907 1.524l-1.919 4.752c-0.183 0.425-0.479 0.792-0.856 1.06-0.377 0.269-0.82 0.429-1.281 0.464z" fill="#4385ff"/>
<path d="m236.97 317.82h-4.752c-0.84 0-1.248-0.681-0.907-1.524l1.92-4.752c0.184-0.425 0.48-0.791 0.857-1.06 0.377-0.268 0.82-0.429 1.282-0.464h4.752c0.84 0 1.247 0.684 0.907 1.524l-1.92 4.752c-0.184 0.425-0.48 0.791-0.857 1.06-0.377 0.268-0.82 0.429-1.282 0.464z" fill="#4385ff"/>
<path d="m179.16 340.25h-4.753c-0.84 0-1.247-0.684-0.907-1.524l1.92-4.752c0.183-0.425 0.48-0.791 0.857-1.06 0.377-0.268 0.82-0.429 1.282-0.464h4.752c0.84 0 1.247 0.681 0.907 1.524l-1.92 4.752c-0.184 0.425-0.48 0.791-0.857 1.06-0.377 0.268-0.82 0.429-1.281 0.464z" fill="#bfd9ff"/>
<path d="m203.54 340.25h-4.752c-0.843 0-1.248-0.684-0.908-1.524l1.92-4.752c0.183-0.425 0.479-0.792 0.856-1.06 0.377-0.269 0.821-0.429 1.282-0.464h4.752c0.843 0 1.248 0.681 0.908 1.524l-1.92 4.752c-0.184 0.425-0.48 0.791-0.857 1.06-0.377 0.268-0.82 0.429-1.281 0.464z" fill="#72d34d"/>
<path d="m227.91 340.25h-4.752c-0.843 0-1.248-0.684-0.907-1.524l1.919-4.752c0.183-0.425 0.48-0.792 0.857-1.06 0.376-0.269 0.82-0.429 1.281-0.464h4.755c0.84 0 1.246 0.681 0.907 1.524l-1.92 4.752c-0.184 0.425-0.481 0.792-0.858 1.06-0.377 0.269-0.82 0.429-1.282 0.464z" fill="#bfd9ff"/>
<path d="m247.41 340.25h-4.751c-0.841 0-1.248-0.684-0.908-1.524l1.92-4.752c0.183-0.425 0.479-0.792 0.856-1.06 0.377-0.269 0.821-0.429 1.282-0.464h4.754c0.841 0 1.247 0.681 0.908 1.524l-1.92 4.752c-0.184 0.425-0.481 0.792-0.858 1.06-0.377 0.269-0.821 0.429-1.283 0.464z" fill="#f43197" opacity=".5"/>
<path d="m170.1 362.67h-4.752c-0.84 0-1.246-0.681-0.907-1.524l1.92-4.752c0.184-0.424 0.481-0.79 0.858-1.058 0.377-0.269 0.82-0.429 1.281-0.463h4.752c0.84 0 1.248 0.681 0.907 1.521l-1.92 4.747c-0.183 0.426-0.479 0.794-0.856 1.063s-0.821 0.43-1.283 0.466z" fill="#f43197" opacity=".5"/>
<path d="m150.61 362.67h-4.752c-0.84 0-1.246-0.681-0.907-1.524l1.92-4.752c0.184-0.424 0.481-0.79 0.858-1.058 0.377-0.269 0.82-0.429 1.281-0.463h4.752c0.84 0 1.248 0.681 0.907 1.521l-1.92 4.752c-0.183 0.425-0.48 0.791-0.857 1.06-0.377 0.268-0.82 0.429-1.282 0.464z" fill="#bfd9ff"/>
<path d="m194.48 362.67h-4.752c-0.843 0-1.248-0.681-0.907-1.524l1.919-4.752c0.184-0.424 0.48-0.79 0.857-1.058 0.377-0.269 0.82-0.429 1.282-0.463h4.752c0.842 0 1.248 0.681 0.907 1.521l-1.92 4.752c-0.183 0.425-0.479 0.792-0.856 1.061-0.377 0.268-0.82 0.428-1.282 0.463z" fill="#bfd9ff"/>
<path d="m218.85 362.67h-4.758c-0.842 0-1.248-0.681-0.907-1.524l1.92-4.752c0.184-0.424 0.48-0.79 0.857-1.058s0.82-0.428 1.281-0.463h4.754c0.841 0 1.247 0.681 0.908 1.521l-1.92 4.752c-0.184 0.424-0.48 0.79-0.856 1.059-0.376 0.268-0.818 0.429-1.279 0.465z" fill="#72d34d"/>
<path d="m161.05 385.09h-4.752c-0.841 0-1.247-0.681-0.908-1.524l1.92-4.751c0.184-0.425 0.481-0.792 0.858-1.06 0.377-0.269 0.82-0.429 1.282-0.464h4.751c0.841 0 1.247 0.681 0.908 1.524l-1.92 4.751c-0.184 0.425-0.48 0.792-0.858 1.06-0.377 0.269-0.82 0.429-1.281 0.464z" fill="#72d34d"/>
<path d="m84.518 130.39s-8.9229 0.596-15.594 9.604c-6.6717 9.009 3.0016 42.033 31.693 55.378 18.682 7.339 20.016-9.342 15.346-21.017-4.669-11.675-18.186-41.223-31.445-43.965z" fill="#fff"/>
<path d="m212.04 483.97c0 4.239-40.919 7.676-91.393 7.676-50.474 0-91.391-3.437-91.391-7.676s40.918-7.674 91.391-7.674c50.473 0 91.393 3.437 91.393 7.674z" fill="#bfd9ff"/>
<path d="m87.257 459.14s1.9396-4.156 9.14-3.046c7.2006 1.109 8.0326 2.493 8.8636 6.094 0.832 3.601 3.323 7.48 4.984 8.312 1.661 0.833 7.757 4.984 12.743 5.815 4.986 0.832 5.542 3.878 4.431 5.264-1.111 1.385-19.943 2.493-24.096 1.939 0 0-14.126-0.277-17.45-1.385s1.1071-21.608 1.3841-22.993z" fill="#16142a"/>
<path d="m123.34 459.14s1.94-4.156 9.141-3.046c7.202 1.109 8.032 2.493 8.863 6.094s3.324 7.48 4.986 8.312c1.663 0.833 7.755 4.984 12.741 5.815 4.986 0.832 5.541 3.878 4.432 5.264-1.11 1.385-19.944 2.493-24.098 1.939 0 0-14.127-0.277-17.45-1.385-3.324-1.108 1.103-21.608 1.385-22.993z" fill="#16142a"/>
<path d="m80.589 356.01c-0.5265-3.339 0.2057-6.756 2.0549-9.586 1.8491-2.831 4.6833-4.874 7.9532-5.733 12.114-3.85 14.407 1.748 18.073 12.209 3.667 10.462-3.097 109.26-3.097 109.26s-14.762 0.337-18.339-1.776c0 0-9.8672-65.559-9.1284-81.524 0.7389-15.965 2.4833-22.851 2.4833-22.851z" fill="#2b3554"/>
<path d="m123.46 62.527 0.034 0.0147 0.036 0.0091v1e-4l2e-3 4e-4 0.013 0.0035c0.012 0.0034 0.032 0.0091 0.059 0.0172 0.054 0.0164 0.137 0.0427 0.246 0.0811 0.219 0.0767 0.542 0.2016 0.946 0.3907 0.809 0.3782 1.945 1.0134 3.225 2.035 2.559 2.0403 5.714 5.6351 8.002 11.841 2.283 6.1882 2.677 15.93 2.097 24.566-0.289 4.308-0.818 8.315-1.465 11.434-0.324 1.561-0.675 2.889-1.037 3.918-0.369 1.05-0.727 1.719-1.03 2.027-0.674 0.685-1.728 1.17-3.19 1.422-1.46 0.252-3.283 0.265-5.441 0.045-4.315-0.44-9.885-1.804-16.388-3.951-13.492-4.452-18.096-18.495-20.569-27.962-2.3094-8.8764 0.3989-17.856 6.6078-23.36 6.1911-5.4885 15.941-7.5839 27.852-2.5323z" fill="#fff" stroke="#000"/>
<path d="m94.268 131.52 6.6464-23.819s13.295-3.878 21.605 4.984l2.77 3.878v15.51c-10.293 1.639-20.794 1.452-31.021-0.553z" fill="#fff"/>
<path d="m75.711 259.76c-2.9657 20.667-2.9657 41.653 0 62.32 4.9838 33.239 14.957 36.562 24.096 36.562 9.1384 0 11.632-26.589 13.294-38.224 1.663-11.635 8.313-51.518-4.156-60.658-12.468-9.14-26.588-9.97-33.234 0z" fill="#2b3554"/>
<path d="m110.61 298.82s-9.972-26.591 7.478-38.224c17.449-11.634 30.744-9.973 34.899 9.14 4.155 19.112 4.986 84.756-0.831 98.052s-26.59-7.48-41.546-68.968z" fill="#2b3f63"/>
<path d="m90.748 131.39s1.8564-6.52 3.5189-7.074c1.6624-0.555 22.158-2.771 33.237 3.876 4.984 3.878 4.431 6.649 4.431 6.649s-33.071-6.346-41.187-3.451z" fill="#fff"/>
<path d="m151.66 259.76s1.668 4.003 0.666 5.338c-1.334 1.334-39.03 14.678-78.734 5.004-0.6685 0 0.9997-6.672 0.9997-6.672z" fill="#4f2af5"/>
<path d="m126.4 357.81c-0.156-3.377 0.948-6.693 3.097-9.303s5.191-4.329 8.536-4.823c12.468-2.494 14.126 3.324 16.624 14.126s-12.286 105.01-12.286 105.01-16.31 0.94-19.634-1.554c0 0-3.809-65.227-1.317-81.02 2.493-15.793 4.98-22.436 4.98-22.436z" fill="#2b3f63"/>
<path d="m107.29 292.58s11.632 37.393 20.359 55.674" stroke="#2a2e59" stroke-miterlimit="10" stroke-width=".666"/>
<path d="m86.096 350.75s4.5705-4.156 14.957 0.416" stroke="#2a2e59" stroke-miterlimit="10" stroke-width=".666"/>
<path d="m89.42 354.9c2.0929-0.93 4.4012-1.267 6.6726-0.974s4.4185 1.205 6.2065 2.636" stroke="#2a2e59" stroke-miterlimit="10" stroke-width=".666"/>
<path d="m104.79 361.55-2.492 84.757" stroke="#2a2e59" stroke-miterlimit="10" stroke-width=".666"/>
<path d="m119.96 113.72s2.908 7.479 12.671 6.234" stroke="#0c0a37" stroke-miterlimit="10" stroke-width=".666"/>
<path d="m132.49 67.564s4.733 6.5077 5.029 10.352c0.295 3.8443-5.917 7.691-6.804 10.059-0.886 2.3678 1.146 5.3383 0.259 6.8183-0.641 1.4242-1.036 2.9465-1.168 4.5024l0.304 3.3484c0.054 0.591-0.113 1.181-0.468 1.657-0.356 0.476-0.875 0.803-1.457 0.919l-0.709 0.141c-0.494 0.102-1.007 0.026-1.45-0.213-0.444-0.239-0.788-0.627-0.975-1.095-1.064-2.672-3.262-7.6643-4.986-8.0949-2.367-0.5911-4.733 3.5488-5.621 5.6189-0.5 1.168-1.757 4.321-2.759 6.85-0.43 1.084-1.157 2.023-2.098 2.711s-2.057 1.096-3.219 1.177c-2.245 0.256-4.512 0.252-6.7552-0.012-2.0699-0.591-12.677-20.192-12.975-29.657-0.2979-9.4655 6.2121-18.933 13.015-21.89 6.8028-2.9566 20.118-5.6142 32.837 6.8079z" fill="#0c0a37"/>
<path d="m84.57 149.79c0 2.663 11.148 42.817 9.3731 49.917s-6.6716 56.716-6.6716 56.716" stroke="#6060e7" stroke-miterlimit="10" stroke-width=".666"/>
<path d="m115.46 54.678s6.507 0.2494 8.758-3.0016 9.508-4.0037 14.762 1.2503 5.004 15.008 0.5 18.515c0 0 5.254-1.0009 6.003 2.7534 0.75 3.7543-5.753 9.5059-13.507 11.258 0 0-12.511-3.5015-16.263-1.2503s-29.024-0.2505-29.024-0.2505-5.5045-5.0047-4.0037-9.5082c1.5008-4.5036 3.0017 0.2505 3.0017 0.2505s-1.2526-6.2549 7.0052-15.262c8.2581-9.0072 19.766-4.0049 22.768-4.7553z" fill="#0c0a37"/>
<path d="m217.38 210.84-7.557-0.451 0.592 10.058 8.724-1.618s1.04 1.22 4.818 1.445c2.878 0.172 6.063-1.226 7.5-2.336l-0.538 0.625c-2.245 2.368-0.668 3.439-0.668 3.439l5.621-4.005s0.108-5.095-0.536-7.085c1.855 0.107 3.526 0.189 4.423 0.2 2.798 0.033 3.623-1.59 3.623-1.59l-16.907-4.033c-0.147-0.1-0.279-0.135-0.392-0.094-1.369 0.498-8.703 5.445-8.703 5.445zm14.845 6.187c2e-3 4e-3 3e-3 8e-3 5e-3 0.012 0 1e-3 0 2e-3 -1e-3 2e-3l7e-3 -8e-3z" clip-rule="evenodd" fill="#eecbbf" fill-rule="evenodd"/>
<path d="m144.37 137.95s-16.42-3.367-19.843 16.869 24.564 59.831 33.134 65.574 50.457 2.671 54.276 1.377c3.819-1.295 4.462-9.835-0.56-12.852l-37.38-11.414s0.696-13.269-5.5-28c-5.932-14.104-18.64-29.654-24.127-31.554z" fill="#4385ff"/>
<path d="m122.35 96.23c-4.326 2.3597 0.786 14.546 4.326 13.762" stroke="#000"/>
<path d="m125.5 119c-0.834 4.333-2 10 5.5 15" stroke="#000"/>
<path d="m92 130.5c2.3333-1.5 7.5-7.6 9.5-20" stroke="#000"/>
<path d="m125 156c1.833 18.833 18 57 34 65.5 34 3.5 58.5 2.5 55.5-6" stroke="#000"/>
<path d="m71.983 265.5c-3.5-3.5-0.9015-12.754-3.9831-25-6.6197-26.78-15.5-59.756-10.517-86.5 0 0 10.5-23.187 52-25.901 26.25-1.717 49.648 19.456 49.648 19.456s15.407 32.044 14.837 33.189c-0.571 1.144-33.669 15.45-33.669 15.45s7.989 20.656 19.402 25.806c-5.201 0-10.218 33.5-7.218 39.5-17.794 4-77 7.5-80.5 4z" fill="#4f2af5"/>
<path d="m391.79 359.36c4.752-0.905 7.152-0.247 7.152 4.768 0 2.99-2.114 7.471-3.444 10.13-4.928 9.858-9.862 20.047-15.328 29.764-4.466 7.938-7.913 17.364-11.025 25.923-0.824 2.267-2.58 7.162-4.469 8.674-2.328 1.862-4.247 2.868-6.854 4.172" stroke="#000" stroke-linecap="round" stroke-linejoin="round"/>
<path d="m431.12 261.63c3.829 0 7.747-0.761 7.747 4.172 0 3.845-1.251 5.579-2.979 8.939-5.523 10.738-14.381 19.873-19.368 30.955-2.332 5.181-4.646 10.135-6.522 15.494-1.508 4.309-1.714 9.24-3.609 13.409-1.857 4.086-5.609 12.249-11.025 12.249" stroke="#000" stroke-linecap="round" stroke-linejoin="round"/>
<path d="m162.68 444.36c6.296-18.147 28.243-31.584 46.235-20.966 3.944 2.327 7.053 6.066 10.214 9.318 2.273 2.338 2.233 3.442 3.047-0.627 2.32-11.602 7.76-19.507 18.234-25.492 9.34-5.337 22.626-4.565 31.495 1.12 5.253 3.367 8.077 8.13 9.722 13.978 0.236 0.838 1.579 6.933 1.658 6.899 8.434-3.614 14.562-1.728 21.683 3.674 4.974 3.773 14.564 15.922 10.125 22.58" stroke="#000" stroke-linecap="round" stroke-linejoin="round"/>
</g>
</g>
</svg>